<svg width="24" height="34" viewBox="0 0 24 34" fill="none" xmlns="http://www.w3.org/2000/svg">
<g filter="url(#filter0_d_29_37)">
<path d="M14.638 13.0456C14.5295 13.1321 14.4133 13.2112 14.3137 13.3062C11.0546 16.4155 7.79787 19.527 4.53831 22.6359C4.17935 22.9782 3.98456 23.374 4.03244 23.8647C4.06372 24.1852 4.19792 24.4638 4.43038 24.6937C4.73807 24.998 5.04191 25.3077 5.37076 25.5903C6.04495 26.1696 6.87687 26.1298 7.53651 25.501C9.3216 23.7992 11.1049 22.0958 12.8889 20.393C15.0864 18.2953 17.2824 16.1962 19.4825 14.101C19.8621 13.7395 20.0518 13.3212 19.9877 12.8063C19.9414 12.4341 19.7369 12.1473 19.4668 11.8899C17.7524 10.2557 16.0399 8.61961 14.3267 6.9842C12.0661 4.82619 9.80495 2.66871 7.54549 0.509615C7.24778 0.225128 6.90867 0.0272615 6.47809 0.00292947C6.0888 -0.019066 5.73229 0.0821494 5.4484 0.333265C5.0677 0.670031 4.68905 1.01339 4.34958 1.38709C3.87791 1.90633 3.88187 2.67838 4.37157 3.18425C4.96456 3.79684 5.59548 4.37612 6.21354 4.96642C8.95758 7.5872 11.7027 10.207 14.4491 12.8255C14.5028 12.8767 14.5764 12.9089 14.6408 12.9499C14.6398 12.9818 14.6389 13.0137 14.638 13.0456Z" fill="white"/>
</g>
<defs>
<filter id="filter0_d_29_37" x="0" y="0" width="24" height="34" filterUnits="userSpaceOnUse" color-interpolation-filters="sRGB">
<feFlood flood-opacity="0" result="BackgroundImageFix"/>
<feColorMatrix in="SourceAlpha" type="matrix" values="0 0 0 0 0 0 0 0 0 0 0 0 0 0 0 0 0 0 127 0" result="hardAlpha"/>
<feOffset dy="4"/>
<feGaussianBlur stdDeviation="2"/>
<feComposite in2="hardAlpha" operator="out"/>
<feColorMatrix type="matrix" values="0 0 0 0 0 0 0 0 0 0 0 0 0 0 0 0 0 0 0.25 0"/>
<feBlend mode="normal" in2="BackgroundImageFix" result="effect1_dropShadow_29_37"/>
<feBlend mode="normal" in="SourceGraphic" in2="effect1_dropShadow_29_37" result="shape"/>
</filter>
</defs>
</svg>
