<svg width="16" height="26" viewBox="0 0 16 26" fill="none" xmlns="http://www.w3.org/2000/svg">
<path d="M5.36203 13.0456C5.47048 13.1321 5.58669 13.2112 5.68626 13.3062C8.94537 16.4155 12.2021 19.527 15.4617 22.6359C15.8206 22.9782 16.0154 23.374 15.9676 23.8647C15.9363 24.1852 15.8021 24.4638 15.5696 24.6937C15.2619 24.998 14.9581 25.3077 14.6292 25.5903C13.955 26.1696 13.1231 26.1298 12.4635 25.501C10.6784 23.7992 8.89505 22.0958 7.11115 20.393C4.91364 18.2953 2.71765 16.1962 0.517525 14.101C0.137913 13.7395 -0.0518076 13.3212 0.0122615 12.8063C0.0585743 12.4341 0.263132 12.1473 0.533158 11.8899C2.2476 10.2557 3.9601 8.61961 5.67327 6.9842C7.93389 4.82619 10.195 2.66871 12.4545 0.509615C12.7522 0.225128 13.0913 0.0272615 13.5219 0.00293007C13.9112 -0.0190669 14.2677 0.0821494 14.5516 0.333265C14.9323 0.67003 15.311 1.01339 15.6504 1.38709C16.1221 1.90633 16.1181 2.67838 15.6284 3.18425C15.0354 3.79684 14.4045 4.37611 13.7865 4.96642C11.0424 7.5872 8.2973 10.207 5.55093 12.8255C5.49723 12.8767 5.42358 12.9089 5.35924 12.9499C5.36017 12.9818 5.3611 13.0137 5.36203 13.0456Z" fill="white"/>
</svg>
